<?xml version="1.0" encoding="utf-8"?>
<svg xmlns="http://www.w3.org/2000/svg" xmlns:xlink="http://www.w3.org/1999/xlink" style="margin: auto; background: rgb(255, 255, 255); display: block; shape-rendering: auto;" width="197px" height="197px" viewBox="0 0 100 100" preserveAspectRatio="xMidYMid">
<g transform="rotate(0 50 50)">
  <rect x="49" y="7.5" rx="1" ry="2.4" width="2" height="15" fill="#da291c">
    <animate attributeName="opacity" values="1;0" keyTimes="0;1" dur="0.9174311926605504s" begin="-0.8691453404152583s" repeatCount="indefinite"></animate>
  </rect>
</g><g transform="rotate(18.94736842105263 50 50)">
  <rect x="49" y="7.5" rx="1" ry="2.4" width="2" height="15" fill="#da291c">
    <animate attributeName="opacity" values="1;0" keyTimes="0;1" dur="0.9174311926605504s" begin="-0.8208594881699661s" repeatCount="indefinite"></animate>
  </rect>
</g><g transform="rotate(37.89473684210526 50 50)">
  <rect x="49" y="7.5" rx="1" ry="2.4" width="2" height="15" fill="#da291c">
    <animate attributeName="opacity" values="1;0" keyTimes="0;1" dur="0.9174311926605504s" begin="-0.772573635924674s" repeatCount="indefinite"></animate>
  </rect>
</g><g transform="rotate(56.8421052631579 50 50)">
  <rect x="49" y="7.5" rx="1" ry="2.4" width="2" height="15" fill="#da291c">
    <animate attributeName="opacity" values="1;0" keyTimes="0;1" dur="0.9174311926605504s" begin="-0.724287783679382s" repeatCount="indefinite"></animate>
  </rect>
</g><g transform="rotate(75.78947368421052 50 50)">
  <rect x="49" y="7.5" rx="1" ry="2.4" width="2" height="15" fill="#da291c">
    <animate attributeName="opacity" values="1;0" keyTimes="0;1" dur="0.9174311926605504s" begin="-0.6760019314340898s" repeatCount="indefinite"></animate>
  </rect>
</g><g transform="rotate(94.73684210526316 50 50)">
  <rect x="49" y="7.5" rx="1" ry="2.4" width="2" height="15" fill="#da291c">
    <animate attributeName="opacity" values="1;0" keyTimes="0;1" dur="0.9174311926605504s" begin="-0.6277160791887977s" repeatCount="indefinite"></animate>
  </rect>
</g><g transform="rotate(113.6842105263158 50 50)">
  <rect x="49" y="7.5" rx="1" ry="2.4" width="2" height="15" fill="#da291c">
    <animate attributeName="opacity" values="1;0" keyTimes="0;1" dur="0.9174311926605504s" begin="-0.5794302269435055s" repeatCount="indefinite"></animate>
  </rect>
</g><g transform="rotate(132.6315789473684 50 50)">
  <rect x="49" y="7.5" rx="1" ry="2.4" width="2" height="15" fill="#da291c">
    <animate attributeName="opacity" values="1;0" keyTimes="0;1" dur="0.9174311926605504s" begin="-0.5311443746982134s" repeatCount="indefinite"></animate>
  </rect>
</g><g transform="rotate(151.57894736842104 50 50)">
  <rect x="49" y="7.5" rx="1" ry="2.4" width="2" height="15" fill="#da291c">
    <animate attributeName="opacity" values="1;0" keyTimes="0;1" dur="0.9174311926605504s" begin="-0.48285852245292127s" repeatCount="indefinite"></animate>
  </rect>
</g><g transform="rotate(170.52631578947367 50 50)">
  <rect x="49" y="7.5" rx="1" ry="2.4" width="2" height="15" fill="#da291c">
    <animate attributeName="opacity" values="1;0" keyTimes="0;1" dur="0.9174311926605504s" begin="-0.43457267020762913s" repeatCount="indefinite"></animate>
  </rect>
</g><g transform="rotate(189.47368421052633 50 50)">
  <rect x="49" y="7.5" rx="1" ry="2.4" width="2" height="15" fill="#da291c">
    <animate attributeName="opacity" values="1;0" keyTimes="0;1" dur="0.9174311926605504s" begin="-0.386286817962337s" repeatCount="indefinite"></animate>
  </rect>
</g><g transform="rotate(208.42105263157896 50 50)">
  <rect x="49" y="7.5" rx="1" ry="2.4" width="2" height="15" fill="#da291c">
    <animate attributeName="opacity" values="1;0" keyTimes="0;1" dur="0.9174311926605504s" begin="-0.3380009657170449s" repeatCount="indefinite"></animate>
  </rect>
</g><g transform="rotate(227.3684210526316 50 50)">
  <rect x="49" y="7.5" rx="1" ry="2.4" width="2" height="15" fill="#da291c">
    <animate attributeName="opacity" values="1;0" keyTimes="0;1" dur="0.9174311926605504s" begin="-0.28971511347175277s" repeatCount="indefinite"></animate>
  </rect>
</g><g transform="rotate(246.31578947368422 50 50)">
  <rect x="49" y="7.5" rx="1" ry="2.4" width="2" height="15" fill="#da291c">
    <animate attributeName="opacity" values="1;0" keyTimes="0;1" dur="0.9174311926605504s" begin="-0.24142926122646063s" repeatCount="indefinite"></animate>
  </rect>
</g><g transform="rotate(265.2631578947368 50 50)">
  <rect x="49" y="7.5" rx="1" ry="2.4" width="2" height="15" fill="#da291c">
    <animate attributeName="opacity" values="1;0" keyTimes="0;1" dur="0.9174311926605504s" begin="-0.1931434089811685s" repeatCount="indefinite"></animate>
  </rect>
</g><g transform="rotate(284.2105263157895 50 50)">
  <rect x="49" y="7.5" rx="1" ry="2.4" width="2" height="15" fill="#da291c">
    <animate attributeName="opacity" values="1;0" keyTimes="0;1" dur="0.9174311926605504s" begin="-0.14485755673587639s" repeatCount="indefinite"></animate>
  </rect>
</g><g transform="rotate(303.1578947368421 50 50)">
  <rect x="49" y="7.5" rx="1" ry="2.4" width="2" height="15" fill="#da291c">
    <animate attributeName="opacity" values="1;0" keyTimes="0;1" dur="0.9174311926605504s" begin="-0.09657170449058425s" repeatCount="indefinite"></animate>
  </rect>
</g><g transform="rotate(322.10526315789474 50 50)">
  <rect x="49" y="7.5" rx="1" ry="2.4" width="2" height="15" fill="#da291c">
    <animate attributeName="opacity" values="1;0" keyTimes="0;1" dur="0.9174311926605504s" begin="-0.048285852245292124s" repeatCount="indefinite"></animate>
  </rect>
</g><g transform="rotate(341.05263157894734 50 50)">
  <rect x="49" y="7.5" rx="1" ry="2.4" width="2" height="15" fill="#da291c">
    <animate attributeName="opacity" values="1;0" keyTimes="0;1" dur="0.9174311926605504s" begin="0s" repeatCount="indefinite"></animate>
  </rect>
</g>
<!-- [ldio] generated by https://loading.io/ --></svg>